<svg width="158" height="101" viewBox="0 0 158 101" fill="none" xmlns="http://www.w3.org/2000/svg">
<path d="M58 1.10001C49 2.2 41.7 4.2 37.3 7L34 9V36C34 54.8 33.7 63 32.9 63C30.9 63 14.6 54.1 9.6 50.2C-0.3 42.6 0.6 42.7 1.4 49.5C1.8 53 3.5 58.3 5.5 62.5C23.7 100.1 86.2 113 128.7 87.9C131.8 86 137.6 81.3 141.5 77.5C150.2 69 155.8 58.7 156.7 49.5C157.4 42.7 158.3 42.6 147.9 50.6C142.6 54.7 127.4 63 125.2 63C124.4 63 124 55 123.8 35.7L123.5 8.5L118 5.7C108.3 0.900002 79.4 -1.3 58 1.10001ZM104.3 52C116.4 53.7 123 57.1 123 61.6C123 64.5 123.1 64.5 111.4 67.4C91.7 72.4 66.3 72.4 46.6 67.4C41.2 66.1 36.3 64.7 35.9 64.4C35.4 64.1 35 62.6 35 61C35 58.7 35.7 57.8 39.3 56.1C44.7 53.5 50.5 52.1 60.5 51C70 50 93.3 50.5 104.3 52Z" fill="current"/>
</svg>
